<?xml version="1.0" standalone="no"?>
<!DOCTYPE svg PUBLIC "-//W3C//DTD SVG 20010904//EN"
 "http://www.w3.org/TR/2001/REC-SVG-20010904/DTD/svg10.dtd">
<svg version="1.0" xmlns="http://www.w3.org/2000/svg"
 width="1492.000000pt" height="1492.000000pt" viewBox="0 0 1492.000000 1492.000000"
 preserveAspectRatio="xMidYMid meet">

<g transform="translate(0.000000,1492.000000) scale(0.100000,-0.100000)"
fill="#000000" stroke="none">
<path d="M3730 8290 l0 -3730 3730 0 3730 0 0 3730 0 3730 -3730 0 -3730 0 0
-3730z m4481 2950 c32 -18 19 -80 -17 -80 -17 0 -44 28 -44 45 0 13 26 45 36
45 3 0 14 -5 25 -10z m-291 -15 c0 -8 -4 -15 -10 -15 -5 0 -10 7 -10 15 0 8 5
15 10 15 6 0 10 -7 10 -15z m-1212 -79 c-2 -13 -10 -21 -23 -21 -23 0 -33 34
-14 45 20 13 40 -1 37 -24z m232 24 c0 -5 -4 -10 -10 -10 -5 0 -10 5 -10 10 0
6 5 10 10 10 6 0 10 -4 10 -10z m220 -20 c0 -5 -4 -10 -10 -10 -5 0 -10 5 -10
10 0 6 5 10 10 10 6 0 10 -4 10 -10z m57 -66 c-9 -9 -28 6 -21 18 4 6 10 6 17
-1 6 -6 8 -13 4 -17z m-77 -44 c0 -5 -4 -10 -10 -10 -5 0 -10 5 -10 10 0 6 5
10 10 10 6 0 10 -4 10 -10z m-212 -54 c2 -10 -1 -23 -7 -29 -15 -15 -46 16
-37 38 8 21 40 15 44 -9z m1902 14 c0 -5 -4 -10 -10 -10 -5 0 -10 5 -10 10 0
6 5 10 10 10 6 0 10 -4 10 -10z m-90 -41 c0 -5 -4 -9 -10 -9 -5 0 -10 7 -10
16 0 8 5 12 10 9 6 -3 10 -10 10 -16z m-49 -52 c-1 -12 -15 -9 -19 4 -3 6 1
10 8 8 6 -3 11 -8 11 -12z m-301 -37 c0 -5 -4 -10 -9 -10 -6 0 -13 5 -16 10
-3 6 1 10 9 10 9 0 16 -4 16 -10z m480 -10 c0 -5 -4 -10 -10 -10 -5 0 -10 5
-10 10 0 6 5 10 10 10 6 0 10 -4 10 -10z m-760 -31 c0 -5 -4 -9 -10 -9 -5 0
-10 7 -10 16 0 8 5 12 10 9 6 -3 10 -10 10 -16z m834 -20 c-3 -5 -10 -7 -15
-3 -5 3 -7 10 -3 15 3 5 10 7 15 3 5 -3 7 -10 3 -15z m-214 -24 c0 -8 -4 -15
-10 -15 -5 0 -10 7 -10 15 0 8 5 15 10 15 6 0 10 -7 10 -15z m-894 -60 c7 -29
-10 -55 -36 -55 -26 0 -43 26 -36 55 5 20 13 25 36 25 23 0 31 -5 36 -25z
m-636 -40 c0 -8 -4 -15 -9 -15 -13 0 -22 16 -14 24 11 11 23 6 23 -9z m2255
-76 c0 -17 -6 -24 -20 -24 -23 0 -33 34 -13 46 20 13 33 5 33 -22z m-4005 -19
c0 -5 -4 -10 -10 -10 -5 0 -10 5 -10 10 0 6 5 10 10 10 6 0 10 -4 10 -10z
m2196 -17 c-10 -10 -19 5 -10 18 6 11 8 11 12 0 2 -7 1 -15 -2 -18z m514 6 c0
-5 -7 -9 -15 -9 -15 0 -20 12 -9 23 8 8 24 -1 24 -14z m-750 -54 c0 -8 -4 -15
-10 -15 -5 0 -10 7 -10 15 0 8 5 15 10 15 6 0 10 -7 10 -15z m-40 -65 c0 -5
-7 -10 -15 -10 -8 0 -15 5 -15 10 0 6 7 10 15 10 8 0 15 -4 15 -10z m-970 -35
c0 -8 -4 -15 -10 -15 -5 0 -10 7 -10 15 0 8 5 15 10 15 6 0 10 -7 10 -15z
m1080 -13 c0 -13 -12 -22 -22 -16 -10 6 -1 24 13 24 5 0 9 -4 9 -8z m-630 -18
c0 -17 -22 -14 -28 4 -2 7 3 12 12 12 9 0 16 -7 16 -16z m530 -19 c0 -8 -4
-15 -10 -15 -5 0 -10 7 -10 15 0 8 5 15 10 15 6 0 10 -7 10 -15z m2485 -25 c0
-16 -6 -26 -18 -28 -19 -4 -32 20 -23 44 9 25 41 13 41 -16z m-2875 -5 c0 -8
-7 -15 -15 -15 -8 0 -15 7 -15 15 0 8 7 15 15 15 8 0 15 -7 15 -15z m2010 5
c0 -5 -4 -10 -10 -10 -5 0 -10 5 -10 10 0 6 5 10 10 10 6 0 10 -4 10 -10z
m-1580 -40 c0 -5 -7 -10 -15 -10 -8 0 -15 5 -15 10 0 6 7 10 15 10 8 0 15 -4
15 -10z m1180 -25 c0 -8 -4 -15 -10 -15 -5 0 -10 7 -10 15 0 8 5 15 10 15 6 0
10 -7 10 -15z m-400 -10 c0 -8 -4 -15 -10 -15 -5 0 -10 7 -10 15 0 8 5 15 10
15 6 0 10 -7 10 -15z m-2750 -35 c0 -5 -4 -10 -10 -10 -5 0 -10 5 -10 10 0 6
5 10 10 10 6 0 10 -4 10 -10z m40 0 c0 -5 -4 -10 -10 -10 -5 0 -10 5 -10 10 0
6 5 10 10 10 6 0 10 -4 10 -10z m820 -20 c0 -5 -7 -10 -15 -10 -8 0 -15 5 -15
10 0 6 7 10 15 10 8 0 15 -4 15 -10z m-1029 -63 c-13 -13 -26 -3 -16 12 3 6
11 8 17 5 6 -4 6 -10 -1 -17z m1599 13 c0 -5 -4 -10 -10 -10 -5 0 -10 5 -10
10 0 6 5 10 10 10 6 0 10 -4 10 -10z m2211 -13 c-13 -13 -26 -3 -16 12 3 6 11
8 17 5 6 -4 6 -10 -1 -17z m364 3 c-3 -5 -10 -10 -16 -10 -5 0 -9 5 -9 10 0 6
7 10 16 10 8 0 12 -4 9 -10z m-4095 -90 c0 -5 -4 -10 -10 -10 -5 0 -10 5 -10
10 0 6 5 10 10 10 6 0 10 -4 10 -10z m800 0 c0 -5 -7 -10 -15 -10 -8 0 -15 5
-15 10 0 6 7 10 15 10 8 0 15 -4 15 -10z m-994 -27 c-10 -10 -19 5 -10 18 6
11 8 11 12 0 2 -7 1 -15 -2 -18z m3854 6 c0 -5 -4 -9 -10 -9 -5 0 -10 7 -10
16 0 8 5 12 10 9 6 -3 10 -10 10 -16z m-1700 -14 c0 -8 -4 -15 -10 -15 -5 0
-10 7 -10 15 0 8 5 15 10 15 6 0 10 -7 10 -15z m-103 -21 c-9 -9 -28 6 -21 18
4 6 10 6 17 -1 6 -6 8 -13 4 -17z m1731 -15 c-2 -6 -8 -10 -13 -10 -5 0 -11 4
-13 10 -2 6 4 11 13 11 9 0 15 -5 13 -11z m-1598 -7 c0 -13 -12 -22 -22 -16
-10 6 -1 24 13 24 5 0 9 -4 9 -8z m790 -22 c0 -5 -7 -10 -16 -10 -8 0 -12 5
-9 10 3 6 10 10 16 10 5 0 9 -4 9 -10z m-990 -10 c0 -5 -4 -10 -10 -10 -5 0
-10 5 -10 10 0 6 5 10 10 10 6 0 10 -4 10 -10z m100 0 c0 -5 -7 -10 -15 -10
-8 0 -15 5 -15 10 0 6 7 10 15 10 8 0 15 -4 15 -10z m-1200 -20 c0 -5 -7 -10
-15 -10 -8 0 -15 5 -15 10 0 6 7 10 15 10 8 0 15 -4 15 -10z m1995 0 c-3 -5
-10 -10 -16 -10 -5 0 -9 5 -9 10 0 6 7 10 16 10 8 0 12 -4 9 -10z m1155 -15
c0 -8 -4 -15 -10 -15 -5 0 -10 7 -10 15 0 8 5 15 10 15 6 0 10 -7 10 -15z
m-2054 -22 c-10 -10 -19 5 -10 18 6 11 8 11 12 0 2 -7 1 -15 -2 -18z m61 1
c-9 -9 -28 6 -21 18 4 6 10 6 17 -1 6 -6 8 -13 4 -17z m73 16 c0 -5 -4 -10
-10 -10 -5 0 -10 5 -10 10 0 6 5 10 10 10 6 0 10 -4 10 -10z m1570 0 c0 -5 -4
-10 -10 -10 -5 0 -10 5 -10 10 0 6 5 10 10 10 6 0 10 -4 10 -10z m-1810 -45
c0 -8 -4 -15 -10 -15 -5 0 -10 7 -10 15 0 8 5 15 10 15 6 0 10 -7 10 -15z
m198 -6 c-2 -6 -8 -10 -13 -10 -5 0 -11 4 -13 10 -2 6 4 11 13 11 9 0 15 -5
13 -11z m1340 -18 c19 -11 11 -45 -11 -49 -19 -4 -32 20 -23 43 6 17 15 19 34
6z m312 -1 c0 -5 -4 -10 -10 -10 -5 0 -10 5 -10 10 0 6 5 10 10 10 6 0 10 -4
10 -10z m-1730 -10 c0 -5 -4 -10 -10 -10 -5 0 -10 5 -10 10 0 6 5 10 10 10 6
0 10 -4 10 -10z m719 -43 c49 -24 65 -61 66 -145 0 -64 -4 -82 -22 -108 -30
-43 -71 -57 -142 -52 -99 7 -161 72 -161 169 0 50 24 102 56 124 53 34 146 40
203 12z m1991 -7 c0 -5 -4 -10 -10 -10 -5 0 -10 5 -10 10 0 6 5 10 10 10 6 0
10 -4 10 -10z m-3532 -69 c18 -11 11 -51 -10 -65 -35 -22 -74 27 -48 59 14 17
38 19 58 6z m3046 -57 c8 -21 -1 -34 -24 -34 -10 0 -21 4 -24 9 -10 16 5 41
24 41 10 0 21 -7 24 -16z m-1034 -19 c0 -8 -4 -15 -10 -15 -5 0 -10 7 -10 15
0 8 5 15 10 15 6 0 10 -7 10 -15z m-2250 -40 c0 -8 -4 -15 -10 -15 -5 0 -10 7
-10 15 0 8 5 15 10 15 6 0 10 -7 10 -15z m2160 -35 c0 -5 -7 -10 -16 -10 -8 0
-12 5 -9 10 3 6 10 10 16 10 5 0 9 -4 9 -10z m-1560 -40 c0 -5 -7 -10 -15 -10
-8 0 -15 5 -15 10 0 6 7 10 15 10 8 0 15 -4 15 -10z m530 0 c0 -5 -4 -10 -10
-10 -5 0 -10 5 -10 10 0 6 5 10 10 10 6 0 10 -4 10 -10z m1307 -16 c-9 -9 -28
6 -21 18 4 6 10 6 17 -1 6 -6 8 -13 4 -17z m-2230 -10 c-9 -9 -28 6 -21 18 4
6 10 6 17 -1 6 -6 8 -13 4 -17z m819 -1 c-10 -10 -19 5 -10 18 6 11 8 11 12 0
2 -7 1 -15 -2 -18z m-935 -26 c-1 -12 -15 -9 -19 4 -3 6 1 10 8 8 6 -3 11 -8
11 -12z m989 -47 c0 -5 -7 -10 -15 -10 -8 0 -15 5 -15 10 0 6 7 10 15 10 8 0
15 -4 15 -10z m2490 -5 c0 -8 -4 -15 -10 -15 -5 0 -10 7 -10 15 0 8 5 15 10
15 6 0 10 -7 10 -15z m-2310 -3 c0 -13 -12 -22 -22 -16 -10 6 -1 24 13 24 5 0
9 -4 9 -8z m-2563 -48 c15 -24 15 -29 2 -53 -38 -68 -125 -9 -89 60 16 29 65
25 87 -7z m2353 -14 c0 -5 -7 -10 -15 -10 -8 0 -15 5 -15 10 0 6 7 10 15 10 8
0 15 -4 15 -10z m120 0 c0 -5 -4 -10 -10 -10 -5 0 -10 5 -10 10 0 6 5 10 10
10 6 0 10 -4 10 -10z m2058 -54 c-2 -13 -10 -21 -23 -21 -23 0 -33 34 -14 45
20 13 40 -1 37 -24z m-3058 4 c0 -5 -4 -10 -10 -10 -5 0 -10 5 -10 10 0 6 5
10 10 10 6 0 10 -4 10 -10z m3950 -5 c0 -8 -4 -15 -10 -15 -5 0 -10 7 -10 15
0 8 5 15 10 15 6 0 10 -7 10 -15z m-1520 -165 c0 -17 -66 -179 -90 -222 -6
-10 -10 -20 -10 -23 0 -3 48 33 106 79 169 134 266 176 409 176 140 0 249 -43
341 -134 107 -108 143 -224 125 -411 -25 -262 -128 -492 -327 -726 -217 -256
-461 -407 -712 -440 -205 -27 -331 22 -423 164 l-38 59 -16 -39 c-9 -21 -59
-144 -112 -273 -52 -129 -116 -287 -142 -350 -27 -63 -58 -142 -70 -175 -56
-150 -65 -172 -83 -204 -10 -18 -18 -35 -16 -36 2 -2 58 -8 125 -14 125 -11
153 -17 153 -32 0 -23 -66 -26 -460 -25 -405 1 -425 2 -428 20 -2 10 1 23 6
28 6 6 63 16 127 24 68 7 127 20 141 29 28 18 98 159 182 365 33 80 124 298
202 485 78 187 168 403 200 480 32 77 81 196 110 265 29 69 74 177 100 240 26
63 82 198 125 300 114 272 126 305 112 319 -6 6 -45 11 -92 11 -57 0 -87 4
-101 15 -19 15 -19 15 0 30 16 12 57 15 205 16 102 0 209 4 236 9 92 14 115
12 115 -10z m-2061 0 c76 -14 156 -57 207 -112 57 -61 74 -102 74 -176 0 -50
-5 -66 -30 -100 -50 -69 -155 -82 -200 -25 -17 21 -20 38 -18 81 3 46 7 58 30
75 26 20 28 20 72 3 53 -20 66 -16 66 25 0 42 -59 102 -137 141 -151 74 -332
17 -399 -127 -46 -97 -29 -176 107 -528 78 -199 89 -244 89 -361 -1 -352 -265
-610 -625 -609 -115 0 -194 18 -291 65 -173 85 -281 279 -245 442 35 155 192
233 313 157 26 -17 54 -43 62 -60 22 -41 20 -130 -2 -159 -22 -29 -77 -42
-132 -32 -58 11 -76 31 -72 83 7 113 8 111 -11 115 -45 9 -96 -81 -97 -170 0
-131 94 -263 237 -331 64 -30 74 -32 183 -32 110 0 118 1 183 33 75 37 140
104 168 174 38 92 18 255 -57 461 -109 304 -104 540 17 727 119 185 314 277
508 240z m1141 -15 c0 -13 -11 -44 -24 -68 -14 -23 -51 -106 -84 -182 -55
-127 -89 -205 -127 -290 -52 -116 -279 -634 -337 -770 -75 -176 -82 -245 -30
-286 23 -18 36 -20 88 -16 95 7 184 55 271 145 74 76 103 87 103 40 0 -35
-131 -156 -217 -201 -185 -96 -389 -86 -502 25 -46 45 -63 91 -63 164 1 79 30
165 147 424 51 113 109 243 130 290 62 140 70 158 149 333 42 92 76 170 76
174 0 3 12 30 27 59 19 38 24 57 16 65 -6 6 -41 15 -79 21 -91 14 -116 24
-112 46 3 15 22 17 223 17 185 0 226 3 255 17 19 9 47 17 63 17 22 1 27 -3 27
-24z m-2180 -50 c7 -8 10 -25 6 -40 -11 -41 -76 -29 -76 15 0 36 47 53 70 25z
m-514 -310 c11 -43 -34 -73 -64 -43 -27 27 -6 68 35 68 16 0 24 -7 29 -25z
m5057 -157 c7 -21 -4 -38 -23 -38 -23 0 -32 13 -24 34 7 19 40 21 47 4z m477
-138 c0 -5 -4 -10 -10 -10 -5 0 -10 5 -10 10 0 6 5 10 10 10 6 0 10 -4 10 -10z
m-159 -23 c-13 -13 -26 -3 -16 12 3 6 11 8 17 5 6 -4 6 -10 -1 -17z m-597 -6
c10 -16 -5 -41 -24 -41 -19 0 -34 25 -24 41 3 5 14 9 24 9 10 0 21 -4 24 -9z
m366 -71 c0 -5 -7 -10 -16 -10 -8 0 -12 5 -9 10 3 6 10 10 16 10 5 0 9 -4 9
-10z m-3610 -65 c0 -8 -4 -15 -10 -15 -5 0 -10 7 -10 15 0 8 5 15 10 15 6 0
10 -7 10 -15z m3730 -5 c0 -5 -4 -10 -10 -10 -5 0 -10 5 -10 10 0 6 5 10 10
10 6 0 10 -4 10 -10z m-460 -125 c0 -18 -5 -25 -19 -25 -11 0 -23 5 -26 10
-11 18 3 40 25 40 15 0 20 -7 20 -25z m518 13 c17 -17 15 -64 -4 -82 -33 -34
-84 -8 -84 43 0 34 17 51 50 51 14 0 31 -5 38 -12z m-278 -108 c0 -5 -4 -10
-10 -10 -5 0 -10 5 -10 10 0 6 5 10 10 10 6 0 10 -4 10 -10z m-5635 -145 c0
-13 -8 -21 -22 -23 -19 -3 -23 1 -23 23 0 22 4 26 23 23 14 -2 22 -10 22 -23z
m5235 5 c0 -5 -7 -10 -15 -10 -8 0 -15 5 -15 10 0 6 7 10 15 10 8 0 15 -4 15
-10z m-55 -46 c12 -12 13 -19 4 -30 -6 -8 -17 -14 -24 -14 -18 0 -27 30 -14
46 14 17 14 17 34 -2z m275 -39 c0 -8 -4 -15 -10 -15 -5 0 -10 7 -10 15 0 8 5
15 10 15 6 0 10 -7 10 -15z m0 -344 c0 -6 -4 -13 -10 -16 -5 -3 -10 1 -10 9 0
9 5 16 10 16 6 0 10 -4 10 -9z m-3400 -129 c0 -13 -12 -22 -22 -16 -10 6 -1
24 13 24 5 0 9 -4 9 -8z m355 -32 c0 -32 -2 -35 -30 -35 -24 0 -31 5 -33 23
-6 38 5 54 35 50 25 -3 28 -7 28 -38z m2195 -10 c0 -5 -4 -10 -10 -10 -5 0
-10 5 -10 10 0 6 5 10 10 10 6 0 10 -4 10 -10z m318 -48 c4 -28 -14 -52 -38
-52 -26 0 -43 26 -36 55 6 22 11 26 39 23 25 -2 33 -8 35 -26z m-488 -7 c0 -8
-4 -15 -10 -15 -5 0 -10 7 -10 15 0 8 5 15 10 15 6 0 10 -7 10 -15z m-4266
-101 c8 -21 -1 -34 -23 -34 -25 0 -32 10 -20 31 12 23 35 25 43 3z m4336 -14
c0 -5 -4 -10 -10 -10 -5 0 -10 5 -10 10 0 6 5 10 10 10 6 0 10 -4 10 -10z
m-155 -75 c0 -30 -39 -27 -43 3 -3 20 0 23 20 20 15 -2 23 -10 23 -23z m-475
6 c0 -6 -4 -13 -10 -16 -5 -3 -10 1 -10 9 0 9 5 16 10 16 6 0 10 -4 10 -9z
m-2060 -21 c0 -5 -7 -10 -15 -10 -8 0 -15 5 -15 10 0 6 7 10 15 10 8 0 15 -4
15 -10z m-1490 -20 c0 -5 -4 -10 -10 -10 -5 0 -10 5 -10 10 0 6 5 10 10 10 6
0 10 -4 10 -10z m4431 -20 c11 -6 19 -21 19 -35 0 -20 -24 -45 -44 -45 -10 0
-36 32 -36 45 0 13 26 45 36 45 3 0 14 -5 25 -10z m-686 -55 c0 -13 -8 -21
-22 -23 -19 -3 -23 1 -23 23 0 22 4 26 23 23 14 -2 22 -10 22 -23z m-1975 -15
c0 -5 -7 -10 -15 -10 -8 0 -15 5 -15 10 0 6 7 10 15 10 8 0 15 -4 15 -10z
m-1410 -20 c0 -5 -4 -10 -10 -10 -5 0 -10 5 -10 10 0 6 5 10 10 10 6 0 10 -4
10 -10z m1850 0 c0 -5 -4 -10 -10 -10 -5 0 -10 5 -10 10 0 6 5 10 10 10 6 0
10 -4 10 -10z m1400 0 c0 -5 -7 -10 -15 -10 -8 0 -15 5 -15 10 0 6 7 10 15 10
8 0 15 -4 15 -10z m290 -45 c0 -8 -4 -15 -10 -15 -5 0 -10 7 -10 15 0 8 5 15
10 15 6 0 10 -7 10 -15z m250 -1 c0 -8 -4 -12 -10 -9 -5 3 -10 10 -10 16 0 5
5 9 10 9 6 0 10 -7 10 -16z m-3282 -33 c8 -5 12 -21 10 -37 -2 -23 -9 -30 -30
-32 -19 -2 -30 3 -38 17 -21 40 20 77 58 52z m2656 -77 c8 -21 -11 -45 -30
-37 -14 5 -19 34 -7 46 12 12 31 7 37 -9z m1897 -58 c15 -32 4 -73 -21 -81
-52 -17 -94 36 -65 81 22 33 71 33 86 0z m-4300 -39 c-1 -12 -15 -9 -19 4 -3
6 1 10 8 8 6 -3 11 -8 11 -12z m119 -7 c0 -5 -7 -10 -15 -10 -8 0 -15 5 -15
10 0 6 7 10 15 10 8 0 15 -4 15 -10z m320 -10 c0 -5 -4 -10 -10 -10 -5 0 -10
5 -10 10 0 6 5 10 10 10 6 0 10 -4 10 -10z m-470 -20 c0 -5 -7 -10 -15 -10 -8
0 -15 5 -15 10 0 6 7 10 15 10 8 0 15 -4 15 -10z m3298 -6 c20 -36 -10 -71
-49 -59 -19 6 -27 54 -12 68 12 13 52 7 61 -9z m-3348 -4 c0 -5 -4 -10 -10
-10 -5 0 -10 5 -10 10 0 6 5 10 10 10 6 0 10 -4 10 -10z m2968 -18 c3 -18 -1
-22 -22 -22 -19 0 -26 5 -26 18 0 39 43 43 48 4z m-2842 -9 c-10 -10 -19 5
-10 18 6 11 8 11 12 0 2 -7 1 -15 -2 -18z m634 2 c0 -8 -4 -15 -10 -15 -5 0
-10 7 -10 15 0 8 5 15 10 15 6 0 10 -7 10 -15z m1790 -31 c13 -34 -4 -56 -39
-52 -18 2 -27 10 -29 26 -7 51 51 72 68 26z m-2469 -7 c-1 -12 -15 -9 -19 4
-3 6 1 10 8 8 6 -3 11 -8 11 -12z m629 5 c0 -13 -12 -22 -22 -16 -10 6 -1 24
13 24 5 0 9 -4 9 -8z m-730 -32 c0 -5 -4 -10 -10 -10 -5 0 -10 5 -10 10 0 6 5
10 10 10 6 0 10 -4 10 -10z m415 -34 c0 -36 -27 -56 -52 -40 -40 25 -20 77 26
72 21 -2 26 -8 26 -32z m480 24 c3 -5 -1 -10 -9 -10 -9 0 -16 5 -16 10 0 6 4
10 9 10 6 0 13 -4 16 -10z m-85 -10 c0 -5 -4 -10 -10 -10 -5 0 -10 5 -10 10 0
6 5 10 10 10 6 0 10 -4 10 -10z m-59 -43 c-13 -13 -26 -3 -16 12 3 6 11 8 17
5 6 -4 6 -10 -1 -17z m3337 -43 c31 -22 30 -69 -3 -90 -23 -15 -27 -15 -50 0
-33 21 -34 68 -3 90 12 9 25 16 28 16 3 0 16 -7 28 -16z m-5538 -34 c0 -5 -7
-10 -15 -10 -8 0 -15 5 -15 10 0 6 7 10 15 10 8 0 15 -4 15 -10z m1480 -10 c0
-5 -4 -10 -10 -10 -5 0 -10 5 -10 10 0 6 5 10 10 10 6 0 10 -4 10 -10z m865
-10 c-3 -5 -10 -10 -16 -10 -5 0 -9 5 -9 10 0 6 7 10 16 10 8 0 12 -4 9 -10z
m-171 -41 c-3 -5 -10 -7 -15 -3 -5 3 -7 10 -3 15 3 5 10 7 15 3 5 -3 7 -10 3
-15z m-956 -111 c7 -7 12 -26 12 -43 0 -38 -16 -55 -50 -55 -34 0 -50 17 -50
55 0 38 16 55 50 55 14 0 31 -5 38 -12z m3182 -53 c0 -18 -5 -25 -19 -25 -11
0 -23 5 -26 10 -11 18 3 40 25 40 15 0 20 -7 20 -25z m-755 -85 c-3 -5 -10
-10 -16 -10 -5 0 -9 5 -9 10 0 6 7 10 16 10 8 0 12 -4 9 -10z m75 0 c0 -5 -4
-10 -10 -10 -5 0 -10 5 -10 10 0 6 5 10 10 10 6 0 10 -4 10 -10z m-2650 -25
c0 -8 -4 -15 -10 -15 -5 0 -10 7 -10 15 0 8 5 15 10 15 6 0 10 -7 10 -15z
m655 -10 c0 -13 -8 -21 -22 -23 -19 -3 -23 1 -23 23 0 22 4 26 23 23 14 -2 22
-10 22 -23z m3513 -17 c-2 -15 -10 -23 -23 -23 -13 0 -21 8 -23 23 -3 18 1 22
23 22 22 0 26 -4 23 -22z m-258 -18 c0 -5 -4 -10 -10 -10 -5 0 -10 5 -10 10 0
6 5 10 10 10 6 0 10 -4 10 -10z m-290 -190 c0 -5 -7 -10 -15 -10 -8 0 -15 5
-15 10 0 6 7 10 15 10 8 0 15 -4 15 -10z m-3493 -26 c-9 -9 -28 6 -21 18 4 6
10 6 17 -1 6 -6 8 -13 4 -17z m3649 -1 c-10 -10 -19 5 -10 18 6 11 8 11 12 0
2 -7 1 -15 -2 -18z m-2956 -73 c0 -5 -4 -10 -10 -10 -5 0 -10 5 -10 10 0 6 5
10 10 10 6 0 10 -4 10 -10z m2590 -100 c0 -5 -4 -10 -10 -10 -5 0 -10 5 -10
10 0 6 5 10 10 10 6 0 10 -4 10 -10z m455 -21 c0 -17 -6 -24 -20 -24 -23 0
-33 34 -13 46 20 13 33 5 33 -22z m-1585 1 c0 -5 -4 -10 -9 -10 -6 0 -13 5
-16 10 -3 6 1 10 9 10 9 0 16 -4 16 -10z m-102 -78 c3 -16 -2 -22 -17 -22 -24
0 -35 15 -27 36 9 23 40 13 44 -14z m-1448 -52 c0 -5 -7 -10 -15 -10 -8 0 -15
5 -15 10 0 6 7 10 15 10 8 0 15 -4 15 -10z m1590 -20 c0 -5 -7 -10 -15 -10 -8
0 -15 5 -15 10 0 6 7 10 15 10 8 0 15 -4 15 -10z m-80 -55 c0 -8 -4 -15 -10
-15 -5 0 -10 7 -10 15 0 8 5 15 10 15 6 0 10 -7 10 -15z m-2130 -315 c11 -7
12 -14 4 -27 -15 -24 -33 -28 -40 -9 -7 18 1 46 13 46 4 0 15 -5 23 -10z"/>
<path d="M8996 9049 c-66 -11 -100 -25 -177 -75 -127 -84 -255 -239 -360 -439
-98 -186 -298 -684 -306 -762 -7 -68 15 -129 68 -181 52 -53 100 -74 179 -80
200 -14 404 158 598 504 223 399 318 819 219 965 -40 58 -124 84 -221 68z
m-151 -484 c0 -13 -8 -21 -22 -23 -19 -3 -23 1 -23 23 0 22 4 26 23 23 14 -2
22 -10 22 -23z m93 -309 c5 -24 -10 -38 -31 -30 -20 7 -23 40 -4 47 19 8 32 2
35 -17z"/>
<path d="M3560 3491 c-134 -41 -214 -149 -214 -291 -1 -92 24 -149 90 -210 66
-60 115 -80 205 -80 61 0 85 5 126 25 28 14 58 34 67 44 16 17 15 20 -9 50
-31 37 -42 38 -89 10 -43 -25 -129 -28 -171 -6 -71 36 -109 106 -103 188 10
140 142 217 263 155 61 -32 66 -32 93 -3 30 31 28 52 -7 77 -63 44 -178 63
-251 41z"/>
<path d="M5291 3214 c-72 -157 -129 -290 -126 -295 9 -14 82 -11 97 5 8 7 22
32 32 55 l19 41 124 0 123 0 23 -47 c12 -27 27 -51 32 -55 18 -13 85 -9 91 6
3 7 -26 80 -63 162 -38 82 -96 208 -128 281 -41 90 -65 133 -76 133 -12 0 -54
-81 -148 -286z m189 -10 c22 -48 40 -88 40 -90 0 -2 -36 -4 -80 -4 -44 0 -80
4 -80 9 0 11 71 171 76 171 2 0 21 -39 44 -86z"/>
<path d="M8309 3481 c-65 -25 -113 -64 -150 -123 -29 -45 -33 -60 -37 -137 -3
-70 0 -95 16 -132 26 -60 73 -113 130 -146 84 -50 285 -40 341 16 15 15 19 32
17 78 -2 32 -4 77 -4 101 l-2 43 -82 -3 c-82 -3 -83 -3 -86 -30 -3 -28 -2 -28
52 -28 l56 0 0 -60 c0 -57 -2 -61 -27 -71 -45 -18 -156 -23 -198 -9 -58 19
-120 87 -141 154 -15 49 -16 65 -6 113 15 70 50 125 104 160 33 22 55 28 112
31 67 3 74 1 126 -32 l55 -35 20 20 20 20 -34 29 c-70 59 -191 77 -282 41z"/>
<path d="M8965 3373 c-214 -470 -212 -463 -165 -463 16 0 28 15 50 63 17 34
30 68 30 75 0 9 37 12 153 12 l152 0 29 -70 c30 -70 51 -89 80 -73 15 8 2 41
-198 483 -23 52 -49 96 -58 98 -10 2 -32 -35 -73 -125z m96 -40 c12 -27 39
-87 59 -135 l38 -88 -119 0 c-65 0 -119 4 -119 8 0 7 25 67 96 230 8 17 16 32
19 32 2 0 14 -21 26 -47z"/>
<path d="M10161 3482 c-9 -17 -149 -328 -217 -482 -34 -78 -33 -97 8 -87 18 5
31 24 53 77 l30 70 146 0 147 0 35 -75 c28 -58 41 -75 57 -75 46 0 46 -1 -138
403 -48 105 -91 187 -98 187 -7 0 -18 -8 -23 -18z m84 -232 c32 -72 56 -132
53 -135 -3 -3 -58 -4 -121 -3 l-116 3 45 100 c25 55 52 115 59 133 8 17 16 32
18 32 3 0 31 -59 62 -130z"/>
<path d="M4037 3483 c-4 -3 -7 -131 -7 -284 l0 -279 24 -6 c13 -3 37 -4 52 -2
l29 3 3 113 3 112 47 0 47 0 58 -115 57 -115 42 0 c76 0 77 6 13 125 -56 103
-57 109 -39 122 107 76 131 186 59 271 -45 53 -78 62 -237 62 -80 0 -148 -3
-151 -7z m303 -120 c28 -36 25 -69 -9 -104 -28 -27 -34 -29 -110 -29 l-81 0 0
78 c0 43 2 81 4 83 2 2 43 3 90 1 78 -3 87 -6 106 -29z"/>
<path d="M4672 3203 l3 -288 160 -3 c206 -4 207 -3 203 51 l-3 42 -127 3 -126
3 -4 62 c-2 34 -2 68 0 75 3 8 33 12 107 12 l102 0 6 36 c10 61 6 63 -111 66
l-106 3 1 58 c1 31 1 60 2 65 1 4 49 6 108 4 147 -5 155 -2 151 51 l-3 42
-183 3 -182 2 2 -287z"/>
<path d="M5777 3484 c-4 -4 -7 -24 -7 -45 0 -45 14 -52 93 -48 l52 3 5 -239 5
-240 29 -3 c15 -2 39 -1 53 2 l24 7 -1 207 c0 114 -1 221 0 237 l0 30 67 0 68
0 0 45 0 45 -191 3 c-104 1 -193 -1 -197 -4z"/>
<path d="M6342 3203 l3 -288 29 -3 c15 -2 39 -1 52 2 l24 6 -2 283 -3 282 -53
3 -52 3 2 -288z"/>
<path d="M6600 3485 c0 -2 58 -131 130 -287 93 -203 134 -284 147 -286 15 -2
43 51 146 275 70 153 127 284 127 291 0 8 -18 12 -53 12 l-53 0 -78 -172 c-43
-95 -81 -176 -85 -180 -3 -4 -42 73 -86 172 l-80 180 -57 0 c-32 0 -58 -2 -58
-5z"/>
<path d="M7310 3206 c0 -250 2 -285 16 -290 20 -8 318 -8 338 0 11 4 16 19 16
50 l0 44 -130 0 -130 0 0 75 0 75 111 0 110 0 -3 48 -3 47 -107 3 -108 3 0 67
0 67 106 -3 c146 -5 154 -2 154 53 l0 45 -185 0 -185 0 0 -284z"/>
<path d="M9482 3203 l3 -288 145 -2 c80 -2 151 1 159 6 8 5 11 16 6 30 -6 20
-13 21 -131 21 l-124 0 0 260 0 260 -30 0 -30 0 2 -287z"/>
<path d="M10580 3481 c0 -5 36 -67 80 -138 44 -70 78 -134 75 -142 -3 -8 -42
-72 -86 -144 -81 -131 -85 -146 -38 -147 21 0 36 18 103 132 31 54 61 100 65
102 5 3 36 -41 69 -98 33 -57 68 -111 77 -120 20 -20 54 -21 61 -2 3 7 -31 72
-75 145 -45 72 -81 137 -81 143 1 7 36 69 79 138 43 69 76 128 74 133 -2 4
-20 7 -38 7 -30 0 -37 -5 -54 -37 -10 -21 -39 -71 -64 -111 l-45 -73 -64 108
c-61 104 -65 108 -101 111 -20 2 -37 -1 -37 -7z"/>
<path d="M11110 3479 c0 -6 15 -32 33 -58 19 -25 64 -87 100 -138 l66 -92 3
-138 3 -138 25 0 25 0 3 138 3 139 103 141 c57 78 102 145 99 150 -2 4 -17 7
-33 7 -25 0 -39 -14 -112 -115 -45 -63 -85 -115 -88 -114 -3 0 -41 51 -85 112
-71 99 -84 112 -113 115 -20 2 -32 -1 -32 -9z"/>
</g>
</svg>
